<?xml version="1.0" encoding="iso-8859-1"?>
<!-- Uploaded to: SVG Repo, www.svgrepo.com, Generator: SVG Repo Mixer Tools -->
<!DOCTYPE svg PUBLIC "-//W3C//DTD SVG 1.1//EN" "http://www.w3.org/Graphics/SVG/1.1/DTD/svg11.dtd">
<svg fill="#000000" version="1.1" id="Capa_1" xmlns="http://www.w3.org/2000/svg" xmlns:xlink="http://www.w3.org/1999/xlink" 
	 width="800px" height="800px" viewBox="0 0 197.832 197.832"
	 xml:space="preserve">
<g>
	<g>
		<ellipse cx="90.765" cy="26.271" rx="16.494" ry="16.276"/>
		<path d="M178.17,149.956l-26.621-30.544c-3.94-4.521-9.617-7.161-15.615-7.259l-25.397-0.417V61.362l26.17-26.673
			c4.359-4.442,4.324-11.567-0.076-15.967l-17.006-17c-2.299-2.296-6.025-2.296-8.323,0c-2.296,2.297-2.298,6.021-0.002,8.317
			l13.667,13.654c1.682,1.68,1.693,4.402,0.027,6.097l-14.86,15.122c0,0-26.979,0-36.5,0c-1.72,0-3.226,0.002-5.357,0.68
			c-5.365,1.707-17.249,5.474-25.756,8.169c-6.143,1.946-11.261,6.253-14.229,11.974l-10.14,19.548
			c-1.495,2.883-0.371,6.435,2.513,7.931c0.866,0.449,1.791,0.663,2.704,0.663c2.125,0,4.178-1.156,5.223-3.173l9.591-18.461
			c1.894-3.645,5.158-6.39,9.074-7.63l23.811-7.54v67.276c-0.125,2.544,0.781,5.127,2.805,6.983l23.887,21.947
			c1.34,1.231,2.104,2.967,2.104,4.787v30.942c0,4.873,3.939,8.822,8.812,8.822c4.873,0,8.813-3.949,8.813-8.822v-33.538
			c0-5.11-2.137-9.987-5.892-13.453l-13.908-12.835l36.617,0.562c1.845,0.028,3.588,0.838,4.8,2.229l25.77,29.562
			c1.744,2,4.191,3.03,6.65,3.03c2.057,0,4.123-0.712,5.795-2.169C180.99,159.196,181.371,153.627,178.17,149.956z"/>
	</g>
</g>
</svg>